<svg width="367" height="650" viewBox="0 0 367 650" fill="none" xmlns="http://www.w3.org/2000/svg">
<path d="M0.343018 1.66046C68.8439 14.2353 128.31 67.2819 148.625 133.881C153.565 150.075 156.339 167.431 152.482 183.916C148.625 200.4 137.16 215.802 120.966 220.768C101.998 226.554 79.4639 215.168 72.8859 196.438C66.3079 177.734 76.7692 154.751 95.2088 147.407C110.874 141.172 129.367 145.954 142.787 156.151C156.207 166.374 165.242 181.3 172.295 196.623C225.712 312.807 177.579 456.414 230.414 572.862C240.902 596.004 255.775 617.984 277.041 631.906C302.614 648.655 335.398 652.115 365.303 645.749C395.207 639.382 422.497 623.901 446.828 605.383" stroke="white" stroke-width="2" stroke-miterlimit="10"/>
</svg>
