<svg width="39" height="299" viewBox="0 0 39 299" fill="none" xmlns="http://www.w3.org/2000/svg">
<path d="M16.3799 -24C50.2373 -6.76195 69.3794 24.9231 64.1252 54.9868C62.8478 62.297 60.1202 69.6813 54.0312 75.5341C47.9421 81.3868 38.0163 85.4494 28.0807 84.5251C16.451 83.4299 7.07685 74.8822 8.08857 66.2726C9.09386 57.6734 20.3232 50.4223 32.0473 50.8044C42.0067 51.1309 50.8093 56.3349 55.5609 62.7814C60.3061 69.2383 61.5439 76.7774 61.6175 84.1196C62.1389 139.781 1.26188 188.169 1.40574 243.831C1.4278 254.891 4.09597 266.273 12.1698 275.601C21.8765 286.82 38.7027 294.055 56.368 296.875C74.0332 299.695 92.5063 298.43 110.124 295.431" stroke="white" stroke-miterlimit="10"/>
</svg>
